TITLE ""
FILE "Step2_Track15.mp3" MP3
  TRACK 01 AUDIO
    TITLE "Step2_Track15_01"
    INDEX 01 00:00:00
  TRACK 02 AUDIO
    TITLE "Step2_Track15_02"
    INDEX 01 00:00:24
  TRACK 03 AUDIO
    TITLE "Step2_Track15_03"
    INDEX 01 00:01:74
  TRACK 04 AUDIO
    TITLE "Step2_Track15_04"
    INDEX 01 00:02:64
  TRACK 05 AUDIO
    TITLE "Step2_Track15_05"
    INDEX 01 00:03:60
  TRACK 06 AUDIO
    TITLE "Step2_Track15_06"
    INDEX 01 00:03:75
  TRACK 07 AUDIO
    TITLE "Step2_Track15_07"
    INDEX 01 00:06:31
  TRACK 08 AUDIO
    TITLE "Step2_Track15_08"
    INDEX 01 00:06:66
  TRACK 09 AUDIO
    TITLE "Step2_Track15_09"
    INDEX 01 00:07:61
  TRACK 10 AUDIO
    TITLE "Step2_Track15_10"
    INDEX 01 00:07:69
  TRACK 11 AUDIO
    TITLE "Step2_Track15_11"
    INDEX 01 00:11:63
  TRACK 12 AUDIO
    TITLE "Step2_Track15_12"
    INDEX 01 00:12:19
  TRACK 13 AUDIO
    TITLE "Step2_Track15_13"
    INDEX 01 00:13:19
  TRACK 14 AUDIO
    TITLE "Step2_Track15_14"
    INDEX 01 00:13:25
  TRACK 15 AUDIO
    TITLE "Step2_Track15_15"
    INDEX 01 00:15:47
  TRACK 16 AUDIO
    TITLE "Step2_Track15_16"
    INDEX 01 00:15:73
  TRACK 17 AUDIO
    TITLE "Step2_Track15_17"
    INDEX 01 00:16:74
  TRACK 18 AUDIO
    TITLE "Step2_Track15_18"
    INDEX 01 00:17:09
  TRACK 19 AUDIO
    TITLE "Step2_Track15_19"
    INDEX 01 00:19:49
  TRACK 20 AUDIO
    TITLE "Step2_Track15_20"
    INDEX 01 00:19:70
  TRACK 21 AUDIO
    TITLE "Step2_Track15_21"
    INDEX 01 00:21:03
  TRACK 22 AUDIO
    TITLE "Step2_Track15_22"
    INDEX 01 00:21:22
  TRACK 23 AUDIO
    TITLE "Step2_Track15_23"
    INDEX 01 00:24:19
  TRACK 24 AUDIO
    TITLE "Step2_Track15_24"
    INDEX 01 00:24:26
  TRACK 25 AUDIO
    TITLE "Step2_Track15_25"
    INDEX 01 00:25:30
  TRACK 26 AUDIO
    TITLE "Step2_Track15_26"
    INDEX 01 00:25:46
  TRACK 27 AUDIO
    TITLE "Step2_Track15_27"
    INDEX 01 00:28:13
  TRACK 28 AUDIO
    TITLE "Step2_Track15_28"
    INDEX 01 00:28:44
  TRACK 29 AUDIO
    TITLE "Step2_Track15_29"
    INDEX 01 00:29:45
  TRACK 30 AUDIO
    TITLE "Step2_Track15_30"
    INDEX 01 00:29:53
  TRACK 31 AUDIO
    TITLE "Step2_Track15_31"
    INDEX 01 00:32:73
  TRACK 32 AUDIO
    TITLE "Step2_Track15_32"
    INDEX 01 00:33:22
  TRACK 33 AUDIO
    TITLE "Step2_Track15_33"
    INDEX 01 00:33:74
  TRACK 34 AUDIO
    TITLE "Step2_Track15_34"
    INDEX 01 00:34:33
  TRACK 35 AUDIO
    TITLE "Step2_Track15_35"
    INDEX 01 00:36:53
  TRACK 36 AUDIO
    TITLE "Step2_Track15_36"
    INDEX 01 00:36:63
  TRACK 37 AUDIO
    TITLE "Step2_Track15_37"
    INDEX 01 00:37:64
  TRACK 38 AUDIO
    TITLE "Step2_Track15_38"
    INDEX 01 00:38:01
  TRACK 39 AUDIO
    TITLE "Step2_Track15_39"
    INDEX 01 00:39:75
  TRACK 40 AUDIO
    TITLE "Step2_Track15_40"
    INDEX 01 00:40:31
  TRACK 41 AUDIO
    TITLE "Step2_Track15_41"
    INDEX 01 00:41:29
  TRACK 42 AUDIO
    TITLE "Step2_Track15_42"
    INDEX 01 00:41:52
  TRACK 43 AUDIO
    TITLE "Step2_Track15_43"
    INDEX 01 00:44:41
